<svg id="Layer_2" data-name="Layer 2" xmlns="http://www.w3.org/2000/svg" xmlns:xlink="http://www.w3.org/1999/xlink" viewBox="0 0 1920 418.5"><defs><style>.cls-1,.cls-2{fill:blue;}.cls-1{opacity:0.38;}.cls-2{opacity:0.41;}.cls-3{fill:url(#linear-gradient);}.cls-4{opacity:0.6;fill:url(#linear-gradient-2);}.cls-5{opacity:0.57;fill:url(#linear-gradient-3);}</style><linearGradient id="linear-gradient" y1="256.25" x2="1920" y2="256.25" gradientUnits="userSpaceOnUse"><stop offset="0.01" stop-color="blue"/><stop offset="1" stop-color="#3fa9f5"/></linearGradient><linearGradient id="linear-gradient-2" x1="182" y1="236.64" x2="1440" y2="236.64" gradientUnits="userSpaceOnUse"><stop offset="0" stop-color="#9e005d" stop-opacity="0.93"/><stop offset="1" stop-color="blue" stop-opacity="0.39"/></linearGradient><linearGradient id="linear-gradient-3" x1="402" y1="294.75" x2="1920" y2="294.75" gradientUnits="userSpaceOnUse"><stop offset="0" stop-color="aqua" stop-opacity="0.5"/><stop offset="0.56" stop-color="#378dc3" stop-opacity="0.77"/><stop offset="1" stop-color="#662d91"/></linearGradient></defs><title>footer of portfolio-2</title><path class="cls-1" d="M1918.92,409.75H0v-39c653.63-598,1089.39-210,1444.19-148,307.82,64,262.85-194,473.73-194C1921.92,28.75,1918.92,409.75,1918.92,409.75Z" transform="translate(0 -28.75)"/><path class="cls-2" d="M1918.92,428.75H0v-39c653.63-598,1089.39-210,1444.19-148,307.82,64,262.85-194,473.73-194C1921.92,47.75,1918.92,428.75,1918.92,428.75Z" transform="translate(0 -28.75)"/><path class="cls-3" d="M1918.92,446.75H0v-39c653.63-598,1089.39-210,1444.19-148,307.82,64,262.85-194,473.73-194C1921.92,65.75,1918.92,446.75,1918.92,446.75Z" transform="translate(0 -28.75)"/><path class="cls-4" d="M182,262.25c549,320,661-46,1258-3C1081,176.25,717-103.75,182,262.25Z" transform="translate(0 -28.75)"/><path class="cls-5" d="M1920,447.25c-33-305-1371-10-1518-305,53.16,219.08,153.08,286.28,382.54,304.29,166.46,0,392.24.71,716.62.71Z" transform="translate(0 -28.75)"/></svg>