<?xml version="1.0" encoding="utf-8"?>
<!-- Generator: Adobe Illustrator 24.0.2, SVG Export Plug-In . SVG Version: 6.00 Build 0)  -->
<!DOCTYPE svg PUBLIC "-//W3C//DTD SVG 1.1//EN" "http://www.w3.org/Graphics/SVG/1.1/DTD/svg11.dtd" [
	<!ENTITY st0 "display:none;">
	<!ENTITY st1 "opacity:0.38;fill:#0000FF;">
	<!ENTITY st2 "opacity:0.41;fill:#0000FF;">
	<!ENTITY st3 "fill:url(#SVGID_1_);">
	<!ENTITY st4 "opacity:0.6;fill:url(#SVGID_2_);">
	<!ENTITY st5 "opacity:0.57;fill:url(#SVGID_3_);">
]>
<svg version="1.1" xmlns="http://www.w3.org/2000/svg" xmlns:xlink="http://www.w3.org/1999/xlink" x="0px" y="0px"
	 viewBox="0 0 1920 1080" style="enable-background:new 0 0 1920 1080;" xml:space="preserve">
<g id="Layer_1" style="&st0;">
	
		<image style="overflow:visible;" width="2560" height="555" xlink:href="H:\WEB_Projects\portfolio\ahsaan-habib.github.io\img\Footer- web-editng-ndonld.png"  transform="matrix(0.75 0 0 0.7498 0 271)">
	</image>
</g>
<g id="Layer_2">
	<path style="&st1;" d="M1918.92,1039.75H0c0,0,0-26,0-39c653.63-598,1089.39-210,1444.19-148c307.83,64,262.85-194,473.73-194
		C1921.92,658.75,1918.92,1039.75,1918.92,1039.75z"/>
	<path style="&st2;" d="M1918.92,1058.75H0c0,0,0-26,0-39c653.63-598,1089.39-210,1444.19-148c307.83,64,262.85-194,473.73-194
		C1921.92,677.75,1918.92,1058.75,1918.92,1058.75z"/>
	<linearGradient id="SVGID_1_" gradientUnits="userSpaceOnUse" x1="-1.818989e-12" y1="886.25" x2="1920" y2="886.25">
		<stop  offset="5.586592e-03" style="stop-color:#0000FF"/>
		<stop  offset="1" style="stop-color:#3FA9F5"/>
	</linearGradient>
	<path style="&st3;" d="M1918.92,1076.75H0c0,0,0-26,0-39c653.63-598,1089.39-210,1444.19-148c307.83,64,262.85-194,473.73-194
		C1921.92,695.75,1918.92,1076.75,1918.92,1076.75z"/>
	<linearGradient id="SVGID_2_" gradientUnits="userSpaceOnUse" x1="182" y1="866.6368" x2="1440" y2="866.6368">
		<stop  offset="0" style="stop-color:#9E005D;stop-opacity:0.93"/>
		<stop  offset="0.9972" style="stop-color:#0000FF;stop-opacity:0.39"/>
	</linearGradient>
	<path style="&st4;" d="M182,892.25c549,320,661-46,1258-3C1081,806.25,717,526.25,182,892.25z"/>
	<linearGradient id="SVGID_3_" gradientUnits="userSpaceOnUse" x1="402" y1="924.75" x2="1920" y2="924.75">
		<stop  offset="0" style="stop-color:#00FFFF;stop-opacity:0.5"/>
		<stop  offset="0.2841" style="stop-color:#1BC7E2;stop-opacity:0.642"/>
		<stop  offset="0.9347" style="stop-color:#5F3B99;stop-opacity:0.9674"/>
		<stop  offset="1" style="stop-color:#662D91"/>
	</linearGradient>
	<path style="&st5;" d="M1920,1077.25c-33-305-1371-10-1518-305c53.16,219.08,153.08,286.28,382.54,304.29
		c166.46,0,392.23,0.71,716.62,0.71C1712.16,1077.25,1894.36,1077.25,1920,1077.25z"/>
</g>
</svg>
