<?xml version="1.0" encoding="utf-8"?>
<!-- Generator: Adobe Illustrator 24.0.2, SVG Export Plug-In . SVG Version: 6.00 Build 0)  -->
<!DOCTYPE svg PUBLIC "-//W3C//DTD SVG 1.1//EN" "http://www.w3.org/Graphics/SVG/1.1/DTD/svg11.dtd" [
	<!ENTITY st0 "opacity:0.41;fill:#0000FF;">
	<!ENTITY st1 "opacity:0.38;fill:#0000FF;">
	<!ENTITY st2 "fill:url(#SVGID_1_);">
	<!ENTITY st3 "fill:url(#SVGID_2_);">
	<!ENTITY st4 "fill:url(#SVGID_3_);">
	<!ENTITY st5 "display:none;">
]>
<svg version="1.1" xmlns="http://www.w3.org/2000/svg" xmlns:xlink="http://www.w3.org/1999/xlink" x="0px" y="0px"
	 viewBox="0 0 1920 1080" style="enable-background:new 0 0 1920 1080;" xml:space="preserve">
<g id="Layer_1">
	<path style="&st0;" d="M0,871.5c0,0,374.12-356.21,819.08-294.18c395.07,40.02,698.36,290.17,892.91,94.06
		C1753.89,629.35,1827.22,556,1920,559c0-8,0-76.5,0-76.5L0,507.5C0,507.5,0,843.48,0,871.5z"/>
	<path style="&st1;" d="M0,851.5c0,0,374.12-356.21,819.08-294.18c395.07,40.02,698.36,290.17,892.91,94.06
		C1753.89,609.35,1827.22,539,1920,542c0-27,0-79.5,0-79.5L0,487.5C0,487.5,0,823.48,0,851.5z"/>
	<linearGradient id="SVGID_1_" gradientUnits="userSpaceOnUse" x1="40.32" y1="416" x2="1960.3199" y2="416">
		<stop  offset="0" style="stop-color:#401DFF"/>
		<stop  offset="0.3368" style="stop-color:#395AFE"/>
		<stop  offset="0.6393" style="stop-color:#348AFD"/>
		<stop  offset="0.8695" style="stop-color:#30A8FC"/>
		<stop  offset="1" style="stop-color:#2FB3FC"/>
	</linearGradient>
	<path style="&st2;" d="M0,832.5c0,0,374.8-356,820.57-294c395.79,40,699.64,290,894.53,94c41.98-42,111.94-114,204.89-111
		c0,3.5,0-522,0-522H0C0-0.5,0,804.5,0,832.5z"/>
	<linearGradient id="SVGID_2_" gradientUnits="userSpaceOnUse" x1="-8.64" y1="545.6364" x2="1911.36" y2="545.6364">
		<stop  offset="0" style="stop-color:#6600FF;stop-opacity:0.8"/>
		<stop  offset="0.0911" style="stop-color:#6015FB;stop-opacity:0.8182"/>
		<stop  offset="0.2917" style="stop-color:#533FF4;stop-opacity:0.8583"/>
		<stop  offset="0.4876" style="stop-color:#4A60EF;stop-opacity:0.8975"/>
		<stop  offset="0.6748" style="stop-color:#4377EB;stop-opacity:0.935"/>
		<stop  offset="0.8497" style="stop-color:#3E85E9;stop-opacity:0.9699"/>
		<stop  offset="1" style="stop-color:#3D8AE8"/>
	</linearGradient>
	<path style="&st3;" d="M0,832.5c0,0,374.8-356,820.57-294c395.79,40,699.64,290,894.53,94c41.98-42,111.94-114,204.89-111
		C1775,500,1669,324,1496.56,330.63C1366,332,1286,394,1081,339c-48-10-344-83-536.94-80.15C281,268,141,334,0,523
		C0,545,0,804.5,0,832.5z"/>
	<linearGradient id="SVGID_3_" gradientUnits="userSpaceOnUse" x1="820.5726" y1="353.0784" x2="1920" y2="353.0784">
		<stop  offset="0" style="stop-color:#6600FF;stop-opacity:0.5"/>
		<stop  offset="0.1249" style="stop-color:#610AFE;stop-opacity:0.5"/>
		<stop  offset="0.3409" style="stop-color:#5527FB;stop-opacity:0.5"/>
		<stop  offset="0.6222" style="stop-color:#4154F6;stop-opacity:0.5"/>
		<stop  offset="0.9547" style="stop-color:#2593EF;stop-opacity:0.5"/>
		<stop  offset="1" style="stop-color:#219CEE;stop-opacity:0.5"/>
	</linearGradient>
	<path style="&st4;" d="M820.57,538.5c395.79,40,699.64,290,894.53,94c41.98-42,111.94-114,204.89-111c0,3.5,0-505.5,0-522
		C1774,93,1560,10,1469,157C1383,249,1398,558,820.57,538.5z"/>
</g>
<g id="Layer_2" style="&st5;">
	
		<image style="display:inline;overflow:visible;" width="2560" height="1278" xlink:href="H:\WEB_Projects\portfolio\ahsaan-habib.github.io\img\Header--web-editng-smart-web.png"  transform="matrix(0.75 0 0 0.6776 -5 -764)">
	</image>
	
		<image style="overflow:visible;" width="2560" height="1278" xlink:href="H:\WEB_Projects\portfolio\ahsaan-habib.github.io\img\Header--web-editng-smart-web.png"  transform="matrix(0.75 0 0 0.6776 17 112)">
	</image>
</g>
</svg>
